<svg width="77" height="134" viewBox="0 0 77 134" fill="none" xmlns="http://www.w3.org/2000/svg">
<path d="M37.9758 33.0537L54.2224 108.763H21.7292L37.9758 33.0537Z" fill="#FFCB2A"/>
<mask id="mask0_1_451" style="mask-type:alpha" maskUnits="userSpaceOnUse" x="21" y="33" width="34" height="76">
<path d="M37.9758 33.0537L54.2224 108.763H21.7292L37.9758 33.0537Z" fill="#FFCB2A"/>
</mask>
<g mask="url(#mask0_1_451)">
<rect x="37.9762" y="23.2263" width="49.1331" height="100.946" fill="#FFAF37"/>
</g>
<g filter="url(#filter0_d_1_451)">
<path d="M35.1234 8.78114C36.0214 6.01721 39.9317 6.01722 40.8297 8.78115L44.7239 20.7663C45.1255 22.0023 46.2774 22.8392 47.5771 22.8392L60.179 22.8392C63.0851 22.8392 64.2935 26.5581 61.9423 28.2663L51.7472 35.6735C50.6957 36.4374 50.2557 37.7915 50.6574 39.0276L54.5516 51.0127C55.4496 53.7766 52.2862 56.075 49.935 54.3668L39.7399 46.9596C38.6884 46.1956 37.2647 46.1956 36.2132 46.9596L26.018 54.3668C23.6669 56.075 20.5035 53.7766 21.4015 51.0127L25.2957 39.0276C25.6973 37.7915 25.2574 36.4374 24.2059 35.6735L14.0108 28.2663C11.6596 26.558 12.868 22.8392 15.7741 22.8392L28.376 22.8392C29.6757 22.8392 30.8276 22.0023 31.2292 20.7663L35.1234 8.78114Z" fill="#FDF779"/>
<path d="M35.1234 8.78114C36.0214 6.01721 39.9317 6.01722 40.8297 8.78115L44.7239 20.7663C45.1255 22.0023 46.2774 22.8392 47.5771 22.8392L60.179 22.8392C63.0851 22.8392 64.2935 26.5581 61.9423 28.2663L51.7472 35.6735C50.6957 36.4374 50.2557 37.7915 50.6574 39.0276L54.5516 51.0127C55.4496 53.7766 52.2862 56.075 49.935 54.3668L39.7399 46.9596C38.6884 46.1956 37.2647 46.1956 36.2132 46.9596L26.018 54.3668C23.6669 56.075 20.5035 53.7766 21.4015 51.0127L25.2957 39.0276C25.6973 37.7915 25.2574 36.4374 24.2059 35.6735L14.0108 28.2663C11.6596 26.558 12.868 22.8392 15.7741 22.8392L28.376 22.8392C29.6757 22.8392 30.8276 22.0023 31.2292 20.7663L35.1234 8.78114Z" fill="url(#paint0_linear_1_451)"/>
</g>
<path d="M70.6553 97.0498H6C2.68629 97.0498 0 99.7361 0 103.05V124.806C0 128.12 2.6863 130.806 6 130.806H70.6553C73.969 130.806 76.6553 128.12 76.6553 124.806V103.05C76.6553 99.7361 73.969 97.0498 70.6553 97.0498Z" fill="#6308BD"/>
<path d="M70.6553 97.0498H6C2.68629 97.0498 0 99.7361 0 103.05V124.806C0 128.12 2.6863 130.806 6 130.806H70.6553C73.969 130.806 76.6553 128.12 76.6553 124.806V103.05C76.6553 99.7361 73.969 97.0498 70.6553 97.0498Z" fill="url(#paint1_linear_1_451)"/>
<rect x="16.823" y="109.274" width="43.1998" height="8.35998" fill="#FFCB2A" stroke="#6C49F1" stroke-width="3"/>
<rect x="54.1502" y="101.27" width="11.6133" height="2.67999" rx="1.33999" fill="white" fill-opacity="0.41"/>
<rect x="68.4444" y="101.269" width="2.67999" height="2.67999" rx="1.33999" fill="white" fill-opacity="0.41"/>
<defs>
<filter id="filter0_d_1_451" x="12.7684" y="6.70825" width="52.4163" height="50.2451" filterUnits="userSpaceOnUse" color-interpolation-filters="sRGB">
<feFlood flood-opacity="0" result="BackgroundImageFix"/>
<feColorMatrix in="SourceAlpha" type="matrix" values="0 0 0 0 0 0 0 0 0 0 0 0 0 0 0 0 0 0 127 0" result="hardAlpha"/>
<feOffset dx="2" dy="2"/>
<feComposite in2="hardAlpha" operator="out"/>
<feColorMatrix type="matrix" values="0 0 0 0 0.125242 0 0 0 0 0.0554167 0 0 0 0 0.554167 0 0 0 0.25 0"/>
<feBlend mode="normal" in2="BackgroundImageFix" result="effect1_dropShadow_1_451"/>
<feBlend mode="normal" in="SourceGraphic" in2="effect1_dropShadow_1_451" result="shape"/>
</filter>
<linearGradient id="paint0_linear_1_451" x1="19.1704" y1="4.15225e-07" x2="56.7827" y2="66.1064" gradientUnits="userSpaceOnUse">
<stop stop-color="#FFCB2A"/>
<stop offset="1" stop-color="#FFAF37"/>
</linearGradient>
<linearGradient id="paint1_linear_1_451" x1="38.3277" y1="97.0498" x2="38.3277" y2="130.806" gradientUnits="userSpaceOnUse">
<stop stop-color="#B27DFA"/>
<stop offset="1" stop-color="#795AF8"/>
</linearGradient>
</defs>
</svg>
