<svg width="104" height="134" viewBox="0 0 104 134" fill="none" xmlns="http://www.w3.org/2000/svg">
<path d="M70.8871 96.6553H32.3626C29.0489 96.6553 26.3626 99.3416 26.3626 102.655V110.426C26.3626 113.739 29.0489 116.426 32.3626 116.426H70.8872C74.2009 116.426 76.8872 113.739 76.8872 110.426V102.655C76.8872 99.3416 74.2009 96.6553 70.8871 96.6553Z" fill="#6308BD"/>
<path d="M70.8871 96.6553H32.3626C29.0489 96.6553 26.3626 99.3416 26.3626 102.655V110.426C26.3626 113.739 29.0489 116.426 32.3626 116.426H70.8872C74.2009 116.426 76.8872 113.739 76.8872 110.426V102.655C76.8872 99.3416 74.2009 96.6553 70.8871 96.6553Z" fill="url(#paint0_linear_1_433)"/>
<path d="M83.3354 106.907H19.9147C16.601 106.907 13.9147 109.594 13.9147 112.907V128C13.9147 131.314 16.601 134 19.9147 134H83.3354C86.6491 134 89.3354 131.314 89.3354 128V112.907C89.3354 109.594 86.6491 106.907 83.3354 106.907Z" fill="#6308BD"/>
<path d="M83.3354 106.907H19.9147C16.601 106.907 13.9147 109.594 13.9147 112.907V128C13.9147 131.314 16.601 134 19.9147 134H83.3354C86.6491 134 89.3354 131.314 89.3354 128V112.907C89.3354 109.594 86.6491 106.907 83.3354 106.907Z" fill="url(#paint1_linear_1_433)"/>
<path d="M50.312 72.2133C50.312 72.2133 50.8843 91.7421 33.7121 94.0329H51.6085V72.2133H50.312Z" fill="#FFCB2A"/>
<path d="M52.9049 72.2133C52.9049 72.2133 52.3325 91.7421 69.5029 94.0329H51.6083V72.2133H52.9049Z" fill="#FFAF37"/>
<path d="M69.505 94.033H33.714V96.9037H69.505V94.033Z" fill="#FFAF37"/>
<path d="M51.6556 64.4624H45.753C45.753 64.4624 43.1892 74.5158 51.6556 74.5158V64.4624Z" fill="#FFCB2A"/>
<path d="M51.5947 64.4624H57.4973C57.4973 64.4624 60.0611 74.5158 51.5947 74.5158V64.4624Z" fill="#FFAF37"/>
<path d="M23.5713 58.0316C22.9285 58.0432 22.2929 57.8942 21.7218 57.5981C21.2758 57.3676 20.9081 57.0093 20.6654 56.5688C20.4228 56.1282 20.3162 55.6252 20.3591 55.1238C20.4837 53.1025 21.7218 52.6084 22.0956 52.5049C22.4403 52.403 22.8082 52.4116 23.1478 52.5296C23.4874 52.6476 23.7818 52.8691 23.9898 53.1631C24.3305 53.665 24.4609 54.5145 23.8068 55.3894C23.7015 55.5303 23.5649 55.6447 23.4077 55.7233C24.1394 55.7469 24.8583 55.5264 25.4518 55.0964C26.2558 54.5106 26.5595 53.6708 26.3512 52.626C26.0261 50.8372 25.0002 50.4778 22.8957 49.9115C22.409 49.7807 21.9048 49.644 21.387 49.4701C8.05954 45.0137 0.262811 35.6261 0 23.7155C0 18.8333 2.44901 8.18811 9.73375 8.18811C11.0653 8.18811 12.1029 8.55134 12.8174 9.27196C14.0341 10.4945 14.0302 12.3966 14.0263 14.2186C14.0263 17.2573 14.1646 19.1457 17.0964 19.6867L17.1567 19.7004C18.4046 20.0031 19.4753 19.8293 20.1683 19.2121C20.8614 18.595 21.1281 17.6244 20.9879 16.4098C20.8906 15.5602 20.5557 14.1561 19.5201 14.2303C18.8543 14.2831 18.4046 14.8162 18.4104 14.9724C18.4338 15.0104 18.4642 15.0435 18.5 15.0701C18.7224 15.272 18.857 15.5535 18.8747 15.8539C18.8924 16.1543 18.7917 16.4497 18.5945 16.6765C18.3973 16.9033 18.1192 17.0433 17.8201 17.0665C17.5209 17.0896 17.2247 16.9941 16.9951 16.8003C16.5796 16.4607 16.2913 15.9897 16.177 15.4644C16.0628 14.9391 16.1296 14.3905 16.3663 13.9081C16.9912 12.5782 18.6499 11.7267 20.1469 11.9728C20.9548 12.1075 22.8724 12.7793 23.2617 16.1481C23.4875 18.1302 22.9288 19.8293 21.6848 20.9326C20.4409 22.036 18.6343 22.4129 16.6467 21.9403C11.7272 21.0166 11.7272 16.9253 11.7272 14.2186C11.7272 12.8516 11.7272 11.4455 11.188 10.8987C10.9174 10.6273 10.4248 10.4906 9.72402 10.4906C4.53009 10.4906 2.28159 19.2356 2.28159 23.696C2.61253 38.5711 14.844 44.8691 22.1053 47.2966C22.5609 47.4489 23.032 47.5778 23.4875 47.7008C25.6036 48.275 28.0001 48.9253 28.5939 52.1925C28.9715 54.0848 28.3194 55.8229 26.8029 56.9438C25.8649 57.6353 24.7351 58.0155 23.5713 58.0316Z" fill="#FFAF37"/>
<path d="M79.679 58.0306C78.5131 58.0179 77.3804 57.6396 76.4396 56.9487C74.9231 55.8278 74.2709 54.0897 74.6525 52.1778C75.2365 48.9224 77.6388 48.2721 79.7549 47.6979C80.2104 47.5749 80.6816 47.446 81.1352 47.2937C88.3985 44.8662 100.63 38.5682 100.959 23.6638C100.959 19.2288 98.7124 10.4837 93.5184 10.4837C92.8157 10.4837 92.3231 10.6204 92.0545 10.8919C91.5094 11.4406 91.5113 12.8448 91.5133 14.2118C91.5133 16.9185 91.5288 21.0098 86.6016 21.9413C84.6159 22.4139 82.8308 22.0565 81.5654 20.9336C80.3 19.8107 79.7608 18.1312 79.9885 16.1491C80.3779 12.7803 82.2954 12.1085 83.1033 11.9738C84.6043 11.7277 86.261 12.5792 86.8839 13.9091C87.1216 14.3911 87.189 14.9398 87.0751 15.4653C86.9612 15.9907 86.6728 16.4618 86.257 16.8013C86.1443 16.9037 86.0123 16.9824 85.8689 17.0331C85.7254 17.0837 85.5734 17.1051 85.4216 17.0961C85.2698 17.0871 85.1213 17.0479 84.9848 16.9807C84.8483 16.9135 84.7265 16.8197 84.6265 16.7047C84.5265 16.5898 84.4504 16.456 84.4025 16.3112C84.3547 16.1664 84.3361 16.0135 84.3478 15.8614C84.3595 15.7094 84.4013 15.5611 84.4707 15.4254C84.5401 15.2897 84.6358 15.1693 84.7522 15.0711C84.7895 15.0443 84.8196 15.0088 84.8398 14.9676C84.8398 14.8152 84.396 14.284 83.7321 14.2313C82.677 14.1473 82.3694 15.5612 82.2623 16.4107C82.1241 17.6254 82.4142 18.6214 83.0819 19.2131C83.7496 19.8049 84.8457 19.9943 86.0955 19.7013L86.1539 19.6877C89.0857 19.1428 89.2317 17.2544 89.2239 14.2196C89.2239 12.3897 89.2239 10.4955 90.4328 9.27295C91.1492 8.55233 92.1849 8.18909 93.5184 8.18909C100.799 8.18909 103.252 18.8343 103.252 23.6911C102.987 35.6271 95.1926 45.0147 81.8632 49.4692C81.3474 49.643 80.8431 49.7797 80.3545 49.9105C78.2501 50.4827 77.2261 50.8362 76.9049 52.6055C76.6927 53.6698 76.9944 54.4998 77.8004 55.0955C78.3933 55.5251 79.1114 55.7455 79.8425 55.7223C79.6838 55.6436 79.5462 55.5277 79.4415 55.3845C78.7854 54.5096 78.9178 53.6601 79.2585 53.1582C79.4667 52.8644 79.7611 52.6431 80.1006 52.5252C80.4402 52.4072 80.8079 52.3984 81.1527 52.5001C81.5284 52.6036 82.7626 53.0977 82.8872 55.1189C82.9302 55.6204 82.8236 56.1233 82.5809 56.5639C82.3383 57.0045 81.9706 57.3627 81.5245 57.5932C80.955 57.8901 80.3208 58.0404 79.679 58.0306Z" fill="#FFAF37"/>
<path d="M51.7681 7.32239H23.4351C23.4351 7.32239 11.1277 66.1843 51.7681 66.1843V7.32239Z" fill="#FFCB2A"/>
<path d="M51.4823 7.32239H79.8153C79.8153 7.32239 92.1207 66.1843 51.4823 66.1843V7.32239Z" fill="#FFAF37"/>
<path d="M72.7241 16.2836C74.9861 18.1157 78.2674 15.046 76.2662 12.7107C73.7539 9.77694 69.9681 14.0504 72.7241 16.2836Z" fill="white"/>
<path d="M73.1816 23.0332C74.7975 24.3412 77.141 22.1487 75.7125 20.4799C73.9169 18.3862 71.214 21.4379 73.1816 23.0332Z" fill="white"/>
<rect x="17.5763" width="68.0984" height="8.05464" rx="4.02732" fill="url(#paint2_linear_1_433)"/>
<g filter="url(#filter0_d_1_433)">
<path d="M48.4055 14.6387C49.3035 11.8748 53.2138 11.8748 54.1118 14.6387L56.6679 22.5053C57.0695 23.7414 58.2213 24.5783 59.521 24.5783H67.7925C70.6987 24.5783 71.907 28.2971 69.5558 30.0053L62.8641 34.8672C61.8126 35.6311 61.3727 36.9852 61.7743 38.2213L64.3303 46.0879C65.2284 48.8518 62.0649 51.1502 59.7138 49.442L53.022 44.5802C51.9706 43.8162 50.5468 43.8162 49.4953 44.5802L42.8036 49.442C40.4524 51.1502 37.289 48.8518 38.187 46.0879L40.743 38.2213C41.1447 36.9852 40.7047 35.6311 39.6532 34.8672L32.9615 30.0053C30.6103 28.2971 31.8187 24.5783 34.7248 24.5783H42.9963C44.296 24.5783 45.4478 23.7414 45.8495 22.5053L48.4055 14.6387Z" fill="#FDF779"/>
<path d="M48.4055 14.6387C49.3035 11.8748 53.2138 11.8748 54.1118 14.6387L56.6679 22.5053C57.0695 23.7414 58.2213 24.5783 59.521 24.5783H67.7925C70.6987 24.5783 71.907 28.2971 69.5558 30.0053L62.8641 34.8672C61.8126 35.6311 61.3727 36.9852 61.7743 38.2213L64.3303 46.0879C65.2284 48.8518 62.0649 51.1502 59.7138 49.442L53.022 44.5802C51.9706 43.8162 50.5468 43.8162 49.4953 44.5802L42.8036 49.442C40.4524 51.1502 37.289 48.8518 38.187 46.0879L40.743 38.2213C41.1447 36.9852 40.7047 35.6311 39.6532 34.8672L32.9615 30.0053C30.6103 28.2971 31.8187 24.5783 34.7248 24.5783H42.9963C44.296 24.5783 45.4478 23.7414 45.8495 22.5053L48.4055 14.6387Z" fill="url(#paint3_linear_1_433)"/>
<path d="M49.8321 15.1022C50.2811 13.7203 52.2362 13.7203 52.6852 15.1022L55.2413 22.9688C55.8437 24.823 57.5715 26.0783 59.521 26.0783H67.7925C69.2456 26.0783 69.8497 27.9377 68.6742 28.7918L61.9824 33.6536C60.4052 34.7995 59.7453 36.8307 60.3477 38.6848L62.9037 46.5514C63.3527 47.9334 61.771 49.0826 60.5954 48.2285L53.9037 43.3666C52.3265 42.2207 50.1908 42.2207 48.6136 43.3666L41.9219 48.2285C40.7463 49.0826 39.1646 47.9334 39.6136 46.5514L42.1696 38.6848C42.7721 36.8307 42.1121 34.7995 40.5349 33.6536L33.8432 28.7918C32.6676 27.9377 33.2717 26.0783 34.7248 26.0783H42.9963C44.9458 26.0783 46.6736 24.823 47.2761 22.9689L49.8321 15.1022Z" stroke="white" stroke-width="3"/>
</g>
<defs>
<filter id="filter0_d_1_433" x="31.7191" y="12.5658" width="41.0792" height="39.4628" filterUnits="userSpaceOnUse" color-interpolation-filters="sRGB">
<feFlood flood-opacity="0" result="BackgroundImageFix"/>
<feColorMatrix in="SourceAlpha" type="matrix" values="0 0 0 0 0 0 0 0 0 0 0 0 0 0 0 0 0 0 127 0" result="hardAlpha"/>
<feOffset dx="2" dy="2"/>
<feComposite in2="hardAlpha" operator="out"/>
<feColorMatrix type="matrix" values="0 0 0 0 0.125242 0 0 0 0 0.0554167 0 0 0 0 0.554167 0 0 0 0.25 0"/>
<feBlend mode="normal" in2="BackgroundImageFix" result="effect1_dropShadow_1_433"/>
<feBlend mode="normal" in="SourceGraphic" in2="effect1_dropShadow_1_433" result="shape"/>
</filter>
<linearGradient id="paint0_linear_1_433" x1="51.6249" y1="96.6553" x2="51.6249" y2="116.426" gradientUnits="userSpaceOnUse">
<stop stop-color="#B27DFA"/>
<stop offset="1" stop-color="#795AF8"/>
</linearGradient>
<linearGradient id="paint1_linear_1_433" x1="51.6251" y1="106.907" x2="51.6251" y2="134" gradientUnits="userSpaceOnUse">
<stop stop-color="#B27DFA"/>
<stop offset="1" stop-color="#795AF8"/>
</linearGradient>
<linearGradient id="paint2_linear_1_433" x1="51.6255" y1="0" x2="51.6255" y2="8.05464" gradientUnits="userSpaceOnUse">
<stop stop-color="#FFCB2A"/>
<stop offset="1" stop-color="#FFAF37"/>
</linearGradient>
<linearGradient id="paint3_linear_1_433" x1="35.8437" y1="5.85754" x2="66.6736" y2="60.0433" gradientUnits="userSpaceOnUse">
<stop stop-color="#FDF779"/>
<stop offset="1" stop-color="#FACB65"/>
</linearGradient>
</defs>
</svg>
