<svg width="110" height="64" viewBox="0 0 110 64" fill="none" xmlns="http://www.w3.org/2000/svg">
<path d="M4.90411 2.08459L54.9997 7.68969L105.095 2.08459V35.0145L54.9997 30.1101L4.90411 35.0145V2.08459Z" fill="#ECEEFD"/>
<mask id="mask0_1_482" style="mask-type:alpha" maskUnits="userSpaceOnUse" x="4" y="2" width="102" height="34">
<path d="M4.90411 2.08459L54.9997 7.68969L105.095 2.08459V35.0145L54.9997 30.1101L4.90411 35.0145V2.08459Z" fill="#ECEEFD"/>
</mask>
<g mask="url(#mask0_1_482)">
<path d="M4.90393 52.8803L54.9995 58.4854L105.095 52.8803V23.1032L54.9995 18.1987L4.90393 23.1032V52.8803Z" fill="#D6DEF7"/>
</g>
<ellipse cx="105.095" cy="18.5496" rx="4.90446" ry="16.465" fill="#BCC7F5"/>
<mask id="mask1_1_482" style="mask-type:alpha" maskUnits="userSpaceOnUse" x="100" y="2" width="10" height="34">
<ellipse rx="4.90446" ry="16.465" transform="matrix(-1 0 0 1 105.096 18.5496)" fill="#BCC7F5"/>
</mask>
<g mask="url(#mask1_1_482)">
<ellipse rx="4.20382" ry="14.7134" transform="matrix(-1 0 0 1 101.593 18.199)" fill="#9699C8"/>
</g>
<ellipse cx="4.90446" cy="18.5496" rx="4.90446" ry="16.465" fill="#BCC7F5"/>
<mask id="mask2_1_482" style="mask-type:alpha" maskUnits="userSpaceOnUse" x="0" y="2" width="10" height="34">
<ellipse cx="4.90446" cy="18.5496" rx="4.90446" ry="16.465" fill="#BCC7F5"/>
</mask>
<g mask="url(#mask2_1_482)">
<ellipse cx="8.40743" cy="18.199" rx="4.20382" ry="14.7134" fill="#9699C8"/>
</g>
<path d="M45.1908 25.2056L59.7533 33.6132L42.5877 63.3449L39.8606 51.2531L28.0252 54.9373L45.1908 25.2056Z" fill="#FF8A00"/>
<mask id="mask3_1_482" style="mask-type:alpha" maskUnits="userSpaceOnUse" x="28" y="25" width="32" height="39">
<path d="M45.1908 25.2056L59.7533 33.6132L42.5877 63.3449L39.8606 51.2531L28.0252 54.9373L45.1908 25.2056Z" fill="#FFAF37"/>
</mask>
<g mask="url(#mask3_1_482)">
<rect x="53.873" y="26.9825" width="21.0191" height="40.6369" transform="rotate(30 53.873 26.9825)" fill="#FEA541"/>
</g>
<path d="M65.7084 25.2056L51.1459 33.6132L68.3115 63.3449L71.0386 51.2531L82.874 54.9373L65.7084 25.2056Z" fill="#FF8A00"/>
<mask id="mask4_1_482" style="mask-type:alpha" maskUnits="userSpaceOnUse" x="51" y="25" width="32" height="39">
<path d="M65.7084 25.2056L51.1459 33.6132L68.3115 63.3449L71.0386 51.2531L82.874 54.9373L65.7084 25.2056Z" fill="#FFAF37"/>
</mask>
<g mask="url(#mask4_1_482)">
<rect width="21.0191" height="40.6369" transform="matrix(-0.866025 0.5 0.5 0.866025 57.0255 26.9825)" fill="#FEA541"/>
</g>
<rect x="42.739" y="0.683594" width="24.5223" height="21.7197" rx="4" fill="url(#paint0_linear_1_482)"/>
<g filter="url(#filter0_d_1_482)">
<circle cx="55.0002" cy="22.7537" r="15.7643" fill="#FECE00"/>
</g>
<mask id="mask5_1_482" style="mask-type:alpha" maskUnits="userSpaceOnUse" x="39" y="6" width="32" height="33">
<circle cx="55.0002" cy="22.7537" r="15.7643" fill="#FECE00"/>
</mask>
<g mask="url(#mask5_1_482)">
<rect x="64.6127" y="3.48621" width="4.20382" height="37.4314" transform="rotate(44.1624 64.6127 3.48621)" fill="#FFF59C"/>
<rect x="68.6341" y="7.39148" width="1.40127" height="37.4314" transform="rotate(44.1624 68.6341 7.39148)" fill="#FFF59C"/>
</g>
<g filter="url(#filter1_i_1_482)">
<circle cx="54.9997" cy="22.754" r="13.6624" fill="#FECE00"/>
</g>
<g filter="url(#filter2_d_1_482)">
<path d="M55.3504 14.6962L58.3057 19.7369L64.0129 20.9898L60.1321 25.3581L60.7041 31.1732L55.3504 28.8322L49.9967 31.1732L50.5687 25.3581L46.6879 20.9898L52.3952 19.7369L55.3504 14.6962Z" fill="#FEE500"/>
</g>
<mask id="mask6_1_482" style="mask-type:alpha" maskUnits="userSpaceOnUse" x="46" y="14" width="19" height="18">
<path d="M55.3504 14.6962L58.3057 19.7369L64.0129 20.9898L60.1321 25.3581L60.7041 31.1732L55.3504 28.8322L49.9967 31.1732L50.5687 25.3581L46.6879 20.9898L52.3952 19.7369L55.3504 14.6962Z" fill="#FEE500"/>
</mask>
<g mask="url(#mask6_1_482)">
<rect x="61.6215" y="10.4158" width="4.20382" height="23.6182" transform="rotate(44.1624 61.6215 10.4158)" fill="#FFF59C"/>
<rect x="65.6434" y="14.3187" width="1.40127" height="23.6182" transform="rotate(44.1624 65.6434 14.3187)" fill="#FFF59C"/>
</g>
<circle cx="64.4586" cy="28.0086" r="1.40127" fill="#FFF59C"/>
<circle cx="65.8602" cy="23.8048" r="0.700637" fill="#FFF59C"/>
<defs>
<filter id="filter0_d_1_482" x="39.2358" y="6.98938" width="31.5287" height="33.5287" filterUnits="userSpaceOnUse" color-interpolation-filters="sRGB">
<feFlood flood-opacity="0" result="BackgroundImageFix"/>
<feColorMatrix in="SourceAlpha" type="matrix" values="0 0 0 0 0 0 0 0 0 0 0 0 0 0 0 0 0 0 127 0" result="hardAlpha"/>
<feOffset dy="2"/>
<feComposite in2="hardAlpha" operator="out"/>
<feColorMatrix type="matrix" values="0 0 0 0 0.980392 0 0 0 0 0.596078 0 0 0 0 0.0156863 0 0 0 1 0"/>
<feBlend mode="normal" in2="BackgroundImageFix" result="effect1_dropShadow_1_482"/>
<feBlend mode="normal" in="SourceGraphic" in2="effect1_dropShadow_1_482" result="shape"/>
</filter>
<filter id="filter1_i_1_482" x="41.3373" y="9.09155" width="27.3248" height="27.3248" filterUnits="userSpaceOnUse" color-interpolation-filters="sRGB">
<feFlood flood-opacity="0" result="BackgroundImageFix"/>
<feBlend mode="normal" in="SourceGraphic" in2="BackgroundImageFix" result="shape"/>
<feColorMatrix in="SourceAlpha" type="matrix" values="0 0 0 0 0 0 0 0 0 0 0 0 0 0 0 0 0 0 127 0" result="hardAlpha"/>
<feOffset dy="3"/>
<feComposite in2="hardAlpha" operator="arithmetic" k2="-1" k3="1"/>
<feColorMatrix type="matrix" values="0 0 0 0 0.980392 0 0 0 0 0.611765 0 0 0 0 0.00392157 0 0 0 1 0"/>
<feBlend mode="normal" in2="shape" result="effect1_innerShadow_1_482"/>
</filter>
<filter id="filter2_d_1_482" x="46.6879" y="14.6962" width="17.325" height="17.4771" filterUnits="userSpaceOnUse" color-interpolation-filters="sRGB">
<feFlood flood-opacity="0" result="BackgroundImageFix"/>
<feColorMatrix in="SourceAlpha" type="matrix" values="0 0 0 0 0 0 0 0 0 0 0 0 0 0 0 0 0 0 127 0" result="hardAlpha"/>
<feOffset dy="1"/>
<feComposite in2="hardAlpha" operator="out"/>
<feColorMatrix type="matrix" values="0 0 0 0 0.980392 0 0 0 0 0.615686 0 0 0 0 0.00392157 0 0 0 1 0"/>
<feBlend mode="normal" in2="BackgroundImageFix" result="effect1_dropShadow_1_482"/>
<feBlend mode="normal" in="SourceGraphic" in2="effect1_dropShadow_1_482" result="shape"/>
</filter>
<linearGradient id="paint0_linear_1_482" x1="55.0001" y1="0.683594" x2="55.3504" y2="12.2441" gradientUnits="userSpaceOnUse">
<stop stop-color="#FEA541"/>
<stop offset="1" stop-color="#FF8A00"/>
</linearGradient>
</defs>
</svg>
