<svg width="69" height="134" viewBox="0 0 69 134" fill="none" xmlns="http://www.w3.org/2000/svg">
<path d="M8.21506 17.1595L21.2633 103.56C21.5587 105.516 23.24 106.963 25.2184 106.963H38.127C40.2177 106.963 41.9557 105.352 42.1153 103.268L47.8889 27.8511C48.0276 26.0386 46.9268 24.3604 45.209 23.7658L13.4787 12.7822C10.6364 11.7984 7.76593 14.1855 8.21506 17.1595Z" fill="url(#paint0_linear_1_464)"/>
<mask id="mask0_1_464" style="mask-type:alpha" maskUnits="userSpaceOnUse" x="8" y="12" width="40" height="95">
<path d="M8.21506 17.1595L21.2633 103.56C21.5587 105.516 23.24 106.963 25.2184 106.963H38.127C40.2177 106.963 41.9557 105.352 42.1153 103.268L47.8889 27.8511C48.0276 26.0386 46.9268 24.3604 45.209 23.7658L13.4787 12.7822C10.6364 11.7984 7.76593 14.1855 8.21506 17.1595Z" fill="url(#paint1_linear_1_464)"/>
</mask>
<g mask="url(#mask0_1_464)">
<path d="M0.089324 8.19404L10.1689 90.1564C11.2477 98.9293 18.6991 105.52 27.538 105.52H33.3897C42.5686 105.52 50.1877 98.4285 50.8448 89.2732L56.25 13.9611C56.8316 5.85716 51.7591 -1.58124 44.0023 -3.99892L39.9851 8.88953L44.0023 -3.99892L22.6659 -10.6492C10.5303 -14.4318 -1.46223 -4.42247 0.089324 8.19404Z" fill="url(#paint2_linear_1_464)" stroke="#D8DDF9" stroke-width="27"/>
</g>
<mask id="mask1_1_464" style="mask-type:alpha" maskUnits="userSpaceOnUse" x="20" y="93" width="23" height="14">
<path d="M25.2188 106.962H38.1274C40.2181 106.962 41.9562 105.352 42.1158 103.267L42.4968 98.2901C42.6746 95.9674 40.8379 93.9847 38.5084 93.9847H24.4672C22.0201 93.9847 20.1467 96.1624 20.5121 98.5821L21.2637 103.559C21.5591 105.515 23.2404 106.962 25.2188 106.962Z" fill="url(#paint3_linear_1_464)"/>
</mask>
<g mask="url(#mask1_1_464)">
<rect x="15.0928" y="94.3781" width="29.8864" height="12.5837" fill="#FEA541"/>
</g>
<g filter="url(#filter0_d_1_464)">
<path d="M40.5526 8.78115C41.4507 6.01722 45.3609 6.01722 46.259 8.78115L48.3827 15.3173C48.7843 16.5534 49.9362 17.3903 51.2359 17.3903H58.1084C61.0146 17.3903 62.2229 21.1091 59.8718 22.8173L54.3118 26.8569C53.2603 27.6209 52.8203 28.975 53.222 30.211L55.3457 36.7472C56.2437 39.5112 53.0803 41.8095 50.7292 40.1013L45.1691 36.0618C44.1177 35.2978 42.6939 35.2978 41.6424 36.0618L36.0824 40.1013C33.7313 41.8095 30.5678 39.5112 31.4659 36.7472L33.5896 30.211C33.9912 28.975 33.5513 27.6209 32.4998 26.8569L26.9398 22.8174C24.5887 21.1091 25.797 17.3903 28.7031 17.3903H35.5757C36.8754 17.3903 38.0273 16.5534 38.4289 15.3174L40.5526 8.78115Z" fill="#FDF779"/>
<path d="M40.5526 8.78115C41.4507 6.01722 45.3609 6.01722 46.259 8.78115L48.3827 15.3173C48.7843 16.5534 49.9362 17.3903 51.2359 17.3903H58.1084C61.0146 17.3903 62.2229 21.1091 59.8718 22.8173L54.3118 26.8569C53.2603 27.6209 52.8203 28.975 53.222 30.211L55.3457 36.7472C56.2437 39.5112 53.0803 41.8095 50.7292 40.1013L45.1691 36.0618C44.1177 35.2978 42.6939 35.2978 41.6424 36.0618L36.0824 40.1013C33.7313 41.8095 30.5678 39.5112 31.4659 36.7472L33.5896 30.211C33.9912 28.975 33.5513 27.6209 32.4998 26.8569L26.9398 22.8174C24.5887 21.1091 25.797 17.3903 28.7031 17.3903H35.5757C36.8754 17.3903 38.0273 16.5534 38.4289 15.3174L40.5526 8.78115Z" fill="url(#paint4_linear_1_464)"/>
</g>
<path d="M54.7075 102.243H13.703C11.0318 102.243 8.68238 104.009 7.93961 106.574L2.21998 126.332C1.10906 130.169 3.98833 134 7.98332 134H60.8038C64.8426 134 67.7278 130.09 66.537 126.231L60.4408 106.474C59.6647 103.959 57.3398 102.243 54.7075 102.243Z" fill="#6308BD"/>
<path d="M54.7075 102.243H13.703C11.0318 102.243 8.68238 104.009 7.93961 106.574L2.21998 126.332C1.10906 130.169 3.98833 134 7.98332 134H60.8038C64.8426 134 67.7278 130.09 66.537 126.231L60.4408 106.474C59.6647 103.959 57.3398 102.243 54.7075 102.243Z" fill="url(#paint5_linear_1_464)"/>
<rect x="37.1136" y="105.39" width="12.9876" height="2.99714" rx="1.49857" fill="white" fill-opacity="0.41"/>
<rect x="53.0997" y="105.388" width="2.99714" height="2.99714" rx="1.49857" fill="white" fill-opacity="0.41"/>
<rect x="24.5301" y="50.3352" width="13.3702" height="2.35945" rx="1.17973" fill="#B0B7DE"/>
<rect x="24.5301" y="54.2678" width="13.3702" height="2.35945" rx="1.17973" fill="#B0B7DE"/>
<defs>
<filter id="filter0_d_1_464" x="25.6974" y="6.70825" width="37.4168" height="35.9796" filterUnits="userSpaceOnUse" color-interpolation-filters="sRGB">
<feFlood flood-opacity="0" result="BackgroundImageFix"/>
<feColorMatrix in="SourceAlpha" type="matrix" values="0 0 0 0 0 0 0 0 0 0 0 0 0 0 0 0 0 0 127 0" result="hardAlpha"/>
<feOffset dx="2" dy="2"/>
<feComposite in2="hardAlpha" operator="out"/>
<feColorMatrix type="matrix" values="0 0 0 0 0.125242 0 0 0 0 0.0554167 0 0 0 0 0.554167 0 0 0 0.25 0"/>
<feBlend mode="normal" in2="BackgroundImageFix" result="effect1_dropShadow_1_464"/>
<feBlend mode="normal" in="SourceGraphic" in2="effect1_dropShadow_1_464" result="shape"/>
</filter>
<linearGradient id="paint0_linear_1_464" x1="27.6758" y1="10.6183" x2="27.6758" y2="106.963" gradientUnits="userSpaceOnUse">
<stop stop-color="#ECEEFD"/>
<stop offset="1" stop-color="#ECEEFD"/>
</linearGradient>
<linearGradient id="paint1_linear_1_464" x1="27.6758" y1="10.6183" x2="27.6758" y2="106.963" gradientUnits="userSpaceOnUse">
<stop stop-color="#ECEEFD"/>
<stop offset="1" stop-color="#ECEEFD"/>
</linearGradient>
<linearGradient id="paint2_linear_1_464" x1="27.6751" y1="26.7422" x2="27.6751" y2="90.4474" gradientUnits="userSpaceOnUse">
<stop stop-color="#ECEEFD"/>
<stop offset="1" stop-color="#ECEEFD"/>
</linearGradient>
<linearGradient id="paint3_linear_1_464" x1="27.6765" y1="10.6175" x2="27.6765" y2="106.962" gradientUnits="userSpaceOnUse">
<stop stop-color="#ECECEC"/>
<stop offset="1" stop-color="#9EA6C4"/>
</linearGradient>
<linearGradient id="paint4_linear_1_464" x1="29.0864" y1="3.16162e-07" x2="57.7252" y2="50.335" gradientUnits="userSpaceOnUse">
<stop stop-color="#FFCB2A"/>
<stop offset="1" stop-color="#FFAF37"/>
</linearGradient>
<linearGradient id="paint5_linear_1_464" x1="34.4671" y1="105.028" x2="34.4671" y2="134" gradientUnits="userSpaceOnUse">
<stop stop-color="#B27DFA"/>
<stop offset="1" stop-color="#795AF8"/>
</linearGradient>
</defs>
</svg>
